<?xml version="1.0" standalone="no"?>
<!DOCTYPE svg PUBLIC "-//W3C//DTD SVG 20010904//EN"
 "http://www.w3.org/TR/2001/REC-SVG-20010904/DTD/svg10.dtd">
<svg version="1.0" xmlns="http://www.w3.org/2000/svg"
 width="12300.000000pt" height="6400.000000pt" viewBox="0 0 12300.000000 6400.000000"
 preserveAspectRatio="xMidYMid meet">
<metadata>
Created by potrace 1.15, written by Peter Selinger 2001-2017
</metadata>
<g transform="translate(0.000000,6400.000000) scale(0.100000,-0.100000)"
fill="#000000" stroke="none">
<path d="M37680 58489 c-895 -59 -1689 -356 -2368 -884 -149 -116 -243 -199
-694 -618 l-379 -351 -238 -300 c-1157 -1462 -3102 -3973 -4206 -5431 -87
-115 -215 -284 -284 -375 -160 -210 -445 -586 -610 -805 -71 -93 -209 -276
-307 -405 -243 -320 -508 -671 -663 -875 -71 -93 -211 -278 -311 -410 -100
-132 -260 -343 -356 -470 -96 -126 -227 -300 -292 -385 -64 -85 -201 -265
-303 -400 -102 -135 -261 -344 -353 -465 -91 -121 -224 -296 -295 -390 -71
-93 -217 -287 -326 -430 -108 -143 -269 -354 -356 -470 -153 -203 -204 -269
-612 -808 -186 -245 -352 -464 -631 -832 -79 -104 -233 -307 -341 -450 -109
-143 -269 -354 -356 -470 -87 -115 -212 -280 -277 -365 -64 -85 -210 -276
-322 -425 -113 -148 -271 -358 -352 -465 -82 -107 -206 -271 -277 -365 -71
-93 -195 -258 -276 -365 -82 -107 -268 -352 -413 -545 -146 -192 -313 -413
-372 -490 -59 -77 -270 -356 -470 -620 -3962 -5231 -5752 -7590 -6640 -8750
-1257 -1643 -1737 -2358 -2070 -3086 -311 -677 -444 -1298 -426 -1989 37
-1454 460 -2625 1292 -3570 199 -227 602 -600 1062 -983 379 -315 575 -454
715 -503 134 -47 1726 -206 2952 -293 1024 -74 1679 -109 3040 -163 204 -8
1872 -13 5625 -18 l5335 -6 150 -22 c329 -47 579 -112 850 -219 989 -391 1658
-1202 1734 -2098 6 -66 13 -334 16 -595 18 -1633 180 -4009 371 -5470 19 -146
30 -200 43 -215 251 -284 925 -1020 1010 -1104 695 -686 1554 -1090 2561
-1205 353 -41 789 -45 1150 -11 1058 100 1930 482 2634 1155 75 72 916 976
1030 1108 22 25 23 30 71 432 129 1085 244 2611 305 4035 21 501 31 870 40
1490 5 352 14 703 20 780 43 595 154 1164 297 1530 51 130 147 313 193 366
l39 46 183 7 c746 28 2106 129 3393 251 204 20 395 38 425 42 52 6 80 23 565
356 281 192 564 392 630 445 147 117 372 341 485 482 290 363 510 814 633
1295 94 369 133 682 144 1139 l6 270 93 190 c124 257 240 525 399 921 131 326
219 560 928 2465 l363 975 4575 3 4576 2 518 -1362 c509 -1341 591 -1550 835
-2118 440 -1027 622 -1376 889 -1707 86 -107 272 -292 366 -364 333 -256 662
-395 1085 -460 122 -19 187 -23 415 -23 371 -1 567 28 871 129 406 135 744
352 1065 682 348 359 582 761 683 1174 121 499 69 1003 -190 1842 -115 373
-249 734 -494 1337 -931 2289 -6244 15431 -6354 15720 -341 889 -620 1570
-751 1830 -159 317 -383 692 -553 925 -249 341 -548 629 -897 862 -473 316
-905 470 -1535 549 -172 21 -700 30 -900 15 -832 -63 -1455 -315 -2050 -827
-393 -338 -709 -778 -1040 -1449 -194 -394 -226 -471 -693 -1665 -363 -928
-6225 -15811 -6229 -15816 -2 -1 -233 12 -513 31 -789 52 -1553 96 -1922 111
l-173 7 -29 76 c-151 394 -277 1167 -321 1971 -6 107 -13 215 -16 240 -4 25
-9 4412 -13 9750 -5 7348 -10 9750 -19 9890 -7 102 -21 316 -32 475 -130 1842
-496 4074 -912 5545 -69 244 -111 357 -204 543 -245 489 -619 936 -1084 1297
-600 466 -1390 785 -2255 909 -426 61 -931 85 -1305 60z m880 -1013 c815 -81
1493 -318 2013 -704 381 -282 673 -623 862 -1007 59 -120 85 -186 125 -330
409 -1441 773 -3679 890 -5455 10 -168 22 -336 26 -375 3 -38 9 -4435 13
-9770 6 -7296 10 -9750 19 -9900 78 -1304 234 -2169 482 -2665 148 -297 359
-482 591 -519 35 -6 195 -15 354 -21 572 -21 1609 -84 2901 -175 l490 -35 490
-219 c269 -120 518 -233 553 -251 572 -289 927 -834 1065 -1635 48 -279 60
-441 60 -820 1 -347 -5 -438 -40 -670 -90 -589 -311 -1060 -661 -1410 -147
-147 -217 -201 -661 -506 l-393 -270 -537 -49 c-1267 -116 -2408 -198 -3057
-219 -311 -11 -370 -20 -509 -85 -223 -103 -431 -318 -599 -621 -239 -432
-429 -1160 -501 -1925 -31 -324 -37 -464 -46 -1125 -5 -368 -14 -803 -20 -965
-51 -1437 -157 -2966 -287 -4155 l-37 -340 -36 -40 c-209 -237 -731 -792 -816
-869 -527 -474 -1121 -728 -1924 -823 -209 -24 -757 -24 -965 0 -852 102
-1488 404 -2046 974 -90 92 -631 683 -721 789 -42 48 -173 1408 -253 2614 -68
1028 -100 1799 -115 2715 -5 319 -14 618 -20 665 -43 358 -140 694 -291 1010
-175 365 -382 654 -683 956 -345 344 -664 570 -1111 785 -470 226 -925 351
-1530 421 -74 8 -1529 13 -5500 19 -2970 5 -5443 11 -5495 14 -52 3 -279 12
-505 20 -1664 62 -3719 213 -5034 370 -236 28 -197 11 -434 200 -333 267 -812
690 -992 876 -500 517 -832 1118 -1013 1834 -112 444 -156 812 -156 1315 0
353 9 446 69 715 110 489 369 1049 767 1656 362 554 704 1022 1624 2224 885
1157 722 942 9152 12065 3670 4843 6801 8974 6959 9180 1170 1533 2652 3442
3613 4656 l285 360 350 325 c193 178 388 358 435 399 360 318 791 556 1248
689 184 54 504 108 732 125 120 8 673 -4 820 -18z m19809 -20713 c842 -2306
1531 -4194 1531 -4197 0 -3 -1375 -6 -3056 -6 l-3056 0 6 22 c3 13 684 1915
1513 4227 1405 3916 1508 4201 1520 4174 6 -16 700 -1915 1542 -4220z"/>
<path d="M33775 44745 c-461 -86 -926 -425 -1409 -1029 -103 -129 -1708 -2266
-7922 -10551 -1205 -1606 -2222 -2967 -2261 -3025 -285 -428 -464 -873 -514
-1283 -17 -141 -6 -464 20 -589 93 -452 357 -832 761 -1098 270 -177 623 -308
1010 -375 301 -52 25 -49 4120 -52 2701 -3 3837 -1 3940 7 687 52 1350 276
1919 648 911 596 1542 1523 1750 2567 41 202 59 354 72 580 7 130 9 2114 7
6285 -4 5693 -5 6105 -21 6250 -23 202 -52 380 -83 510 -152 622 -466 1012
-914 1135 -121 34 -349 43 -475 20z m279 -1045 c110 -149 182 -447 206 -855 8
-127 10 -1984 8 -6270 -4 -6699 1 -6127 -62 -6435 -157 -759 -624 -1447 -1281
-1885 -428 -285 -920 -459 -1425 -505 -91 -8 -1157 -10 -3900 -8 l-3775 3
-137 23 c-735 121 -1084 444 -1028 952 27 247 127 503 311 799 54 88 9873
13190 10132 13521 118 150 267 318 361 407 199 190 396 312 504 313 40 0 44
-3 86 -60z"/>
<path d="M84245 52720 c-364 -75 -475 -105 -570 -152 -150 -76 -292 -201 -380
-333 -79 -119 -131 -229 -64 -134 75 106 211 223 339 292 104 56 193 81 560
158 342 72 346 73 500 73 131 0 168 -3 240 -23 219 -59 408 -181 542 -350 81
-101 161 -269 192 -401 14 -58 312 -1495 662 -3195 l637 -3090 0 -140 c0 -119
-4 -155 -26 -239 -64 -238 -214 -455 -406 -585 -149 -101 -234 -129 -656 -216
-412 -84 -475 -92 -606 -75 -356 46 -636 242 -791 555 -65 130 -54 79 -394
1748 l-69 337 -196 0 -196 0 -713 2073 c-392 1139 -729 2110 -749 2157 -95
226 -284 420 -508 521 -100 45 -243 79 -363 86 -180 10 -253 -9 -810 -204
-102 -36 -208 -76 -237 -89 -90 -43 -201 -122 -273 -194 -72 -71 -169 -209
-196 -277 l-15 -38 23 30 c97 130 279 275 413 329 147 59 700 246 773 261 91
20 271 22 362 6 215 -39 432 -156 566 -304 68 -75 158 -217 193 -306 70 -175
2102 -6098 2116 -6169 22 -102 22 -284 0 -386 -37 -176 -119 -343 -236 -477
-69 -80 -196 -173 -305 -225 -91 -44 -642 -238 -782 -276 -111 -30 -333 -30
-449 0 -198 51 -336 127 -468 257 -101 98 -158 177 -211 288 -28 60 -324 912
-824 2375 -63 182 -109 302 -117 302 -7 0 -35 -9 -63 -20 l-50 -20 -10 23 c-5
12 -282 814 -615 1782 -333 968 -621 1792 -639 1832 -200 420 -669 648 -1121
543 -97 -23 -695 -229 -783 -270 -141 -66 -299 -202 -389 -335 -38 -57 -103
-177 -103 -191 0 -3 21 22 47 57 88 120 211 223 348 292 73 37 232 95 590 216
240 80 334 97 490 87 364 -23 686 -241 840 -569 30 -64 362 -1023 1750 -5057
205 -597 380 -1120 389 -1162 22 -105 21 -280 -3 -393 -61 -298 -253 -550
-521 -685 -84 -42 -700 -259 -815 -286 -49 -12 -112 -17 -210 -17 -118 0 -155
4 -237 26 -180 48 -334 135 -465 263 l-63 62 3 -8952 c2 -6950 6 -8977 15
-9066 51 -484 126 -810 256 -1123 126 -304 278 -531 510 -763 375 -375 798
-585 1346 -669 148 -23 474 -30 645 -16 484 43 888 189 1241 452 574 425 908
1071 1008 1949 8 74 18 155 22 180 4 25 10 3203 13 7064 l6 7018 1564 -6218
c1942 -7727 1967 -7821 2166 -8324 243 -614 524 -1050 890 -1379 600 -541
1250 -768 2135 -748 545 13 958 104 1349 298 258 128 474 291 716 540 314 324
539 659 690 1029 129 315 362 1114 634 2180 38 151 759 3013 1600 6360 841
3347 1540 6126 1553 6175 l23 90 5 -7020 c5 -6613 6 -7028 23 -7165 63 -523
167 -896 344 -1230 234 -445 607 -807 1054 -1025 660 -321 1570 -315 2245 16
235 116 409 242 610 443 279 281 450 566 589 989 112 340 168 691 185 1162 5
144 9 3946 10 8988 l0 8739 -62 -57 c-222 -202 -521 -301 -796 -265 -118 15
-150 24 -525 154 -426 147 -500 187 -657 353 -122 128 -204 278 -245 444 -25
102 -31 307 -11 412 11 58 266 811 737 2180 396 1151 867 2517 1046 3037 178
520 340 977 358 1016 49 106 108 189 204 284 134 134 293 221 482 267 91 22
324 24 414 4 69 -15 703 -232 784 -268 138 -60 315 -206 394 -323 47 -69 47
-59 1 33 -96 192 -273 363 -468 452 -98 45 -693 249 -791 271 -124 28 -311 24
-440 -10 -306 -80 -559 -295 -675 -573 -18 -42 -304 -867 -636 -1833 -333
-965 -606 -1760 -609 -1767 -3 -9 -22 -5 -66 13 -34 14 -62 24 -64 22 -1 -2
-50 -142 -108 -313 -817 -2388 -821 -2399 -921 -2531 -237 -315 -660 -469
-1028 -375 -119 31 -683 228 -775 271 -115 54 -193 112 -293 217 -181 191
-270 416 -270 683 0 72 7 147 18 200 16 74 2039 5971 2113 6157 124 313 394
536 735 608 102 22 284 22 387 0 89 -18 710 -231 805 -275 126 -59 296 -200
380 -315 36 -51 24 -14 -22 68 -128 225 -306 368 -576 465 -334 121 -622 213
-710 228 -249 43 -543 -30 -751 -186 -126 -95 -240 -234 -304 -374 -25 -53
-1184 -3400 -1442 -4163 l-35 -103 -196 0 -197 0 -63 -313 c-206 -1015 -326
-1589 -344 -1642 -108 -317 -357 -558 -670 -649 -114 -33 -255 -50 -347 -41
-113 10 -786 150 -866 180 -255 96 -456 282 -570 528 -72 155 -105 349 -87
503 15 129 1297 6346 1325 6429 113 329 372 568 711 656 52 14 125 23 206 26
123 5 129 4 455 -62 494 -100 551 -117 702 -211 74 -46 216 -177 277 -254 22
-29 20 -21 -13 43 -114 219 -319 394 -558 475 -33 12 -216 54 -405 94 l-343
72 -170 0 c-155 -1 -178 -3 -260 -27 -344 -103 -604 -364 -694 -697 -11 -41
-302 -1443 -646 -3115 l-625 -3040 -74 -145 c-217 -423 -416 -1017 -725 -2160
-27 -102 -741 -2793 -1586 -5980 -845 -3187 -1538 -5796 -1540 -5798 -2 -2 -8
13 -14 34 -189 719 -3138 11833 -3176 11974 -239 876 -436 1462 -631 1870
l-74 155 -615 2995 c-688 3345 -656 3193 -684 3274 -29 82 -101 214 -155 285
-96 125 -259 248 -407 308 -123 50 -196 64 -354 69 l-150 4 -340 -70z"/>
<path d="M84029 51802 c-62 -40 -124 -114 -151 -181 -31 -80 -31 -213 1 -293
31 -80 106 -159 188 -200 53 -26 80 -32 147 -36 85 -4 171 12 209 41 17 11 13
12 -30 7 -174 -20 -332 68 -410 228 -24 50 -27 69 -28 157 0 88 3 107 27 158
15 32 44 78 64 102 20 25 34 45 32 45 -2 0 -24 -13 -49 -28z"/>
<path d="M97663 51789 c20 -25 49 -72 64 -105 25 -52 28 -71 28 -159 0 -93 -2
-105 -32 -166 -75 -152 -238 -240 -404 -219 -42 5 -49 4 -35 -5 71 -53 249
-59 348 -13 80 37 151 107 191 187 30 61 32 73 32 166 0 88 -3 107 -27 157
-32 68 -100 144 -159 178 l-43 24 37 -45z"/>
<path d="M80562 50809 c-75 -29 -164 -114 -204 -197 -31 -62 -33 -74 -33 -167
0 -93 2 -105 32 -166 91 -183 303 -268 493 -197 35 13 34 13 -47 19 -146 11
-255 84 -319 215 -66 133 -58 267 24 389 21 31 58 72 82 91 49 39 45 41 -28
13z"/>
<path d="M101120 50797 c158 -121 196 -354 85 -523 -69 -105 -170 -163 -300
-173 -79 -6 -80 -6 -45 -19 194 -73 410 17 498 206 24 50 27 69 27 157 0 91
-3 106 -31 165 -49 103 -145 185 -254 215 -19 6 -14 -1 20 -28z"/>
<path d="M77857 49880 c-91 -35 -166 -107 -211 -200 -29 -60 -31 -73 -31 -170
0 -96 3 -110 29 -165 39 -79 110 -149 194 -188 61 -29 76 -32 162 -32 78 0
103 4 140 22 31 15 36 20 18 17 -45 -10 -159 15 -220 48 -146 78 -233 259
-199 416 18 84 51 143 118 210 35 34 60 62 56 62 -5 -1 -30 -9 -56 -20z"/>
<path d="M103859 49833 c51 -51 73 -83 91 -128 90 -238 -45 -483 -294 -535
-33 -7 -75 -10 -95 -7 l-36 5 45 -21 c36 -17 65 -21 140 -22 91 0 100 2 172
38 88 43 143 99 185 186 36 75 44 203 18 282 -35 105 -107 190 -198 233 -96
45 -100 41 -28 -31z"/>
<path d="M85825 46993 c-11 -2 -249 -51 -528 -109 -280 -57 -517 -109 -528
-115 -32 -17 -59 -70 -59 -117 0 -37 6 -50 33 -77 19 -19 46 -37 60 -41 29 -7
1044 197 1104 221 40 17 73 69 73 115 0 39 -29 93 -57 108 -25 13 -74 21 -98
15z"/>
<path d="M95810 46987 c-43 -15 -80 -68 -80 -116 0 -47 33 -99 73 -115 60 -25
1075 -229 1103 -222 15 4 42 22 61 41 28 28 33 40 33 83 0 51 -22 91 -60 112
-16 9 -1074 231 -1090 229 -3 0 -21 -5 -40 -12z"/>
<path d="M85440 46251 c-283 -59 -525 -113 -538 -120 -32 -17 -62 -70 -62
-109 0 -61 39 -110 99 -125 26 -6 1077 205 1112 224 56 29 77 133 38 183 -26
34 -70 56 -106 55 -15 -1 -260 -49 -543 -108z"/>
<path d="M95659 46337 c-41 -27 -59 -60 -59 -107 0 -39 29 -93 58 -109 11 -6
260 -60 555 -120 492 -102 539 -110 574 -98 107 35 110 195 5 236 -33 12
-1049 221 -1078 221 -12 0 -36 -10 -55 -23z"/>
<path d="M82395 46014 c-563 -194 -563 -194 -572 -276 -9 -82 42 -138 124
-138 23 0 242 71 543 175 440 152 509 178 532 204 15 17 31 43 34 58 10 36
-15 102 -47 125 -57 43 -70 40 -614 -148z"/>
<path d="M98721 46172 c-46 -23 -75 -80 -67 -128 15 -79 17 -80 568 -269 288
-100 523 -175 543 -175 76 0 125 51 125 130 0 32 -7 47 -32 75 -30 31 -79 50
-546 209 -282 97 -522 176 -535 176 -12 0 -37 -8 -56 -18z"/>
<path d="M85556 45610 c-285 -59 -529 -113 -542 -119 -33 -15 -64 -69 -64
-112 0 -51 36 -101 85 -117 38 -13 69 -8 555 92 283 59 529 111 547 117 109
35 113 191 7 235 -19 8 -41 14 -51 13 -10 -1 -251 -50 -537 -109z"/>
<path d="M95563 45705 c-101 -44 -93 -201 11 -234 17 -6 263 -58 546 -116 560
-116 558 -115 609 -61 47 50 35 153 -22 191 -19 12 -1067 236 -1101 235 -6 -1
-26 -7 -43 -15z"/>
<path d="M82600 45396 c-272 -95 -505 -178 -518 -186 -27 -18 -52 -68 -52
-105 0 -61 63 -125 122 -125 15 0 258 79 540 176 435 148 517 180 540 205 53
56 49 128 -8 178 -58 52 -73 48 -624 -143z"/>
<path d="M98496 45549 c-33 -26 -56 -69 -56 -106 0 -37 32 -89 67 -106 52 -27
1024 -357 1051 -357 62 0 122 65 122 131 0 41 -32 92 -67 108 -16 7 -249 89
-520 182 -311 107 -506 169 -531 169 -25 0 -49 -8 -66 -21z"/>
<path d="M79688 45081 c-285 -98 -525 -184 -534 -191 -24 -21 -44 -66 -44
-102 0 -71 75 -137 140 -124 29 5 973 329 1027 351 38 16 73 68 73 108 0 39
-26 92 -54 111 -57 37 -65 35 -608 -153z"/>
<path d="M101453 45253 c-34 -7 -81 -59 -89 -98 -8 -45 11 -100 44 -124 15
-10 260 -99 546 -197 l518 -178 41 15 c51 17 87 67 87 118 0 40 -29 94 -57
109 -31 17 -1013 353 -1042 356 -14 2 -36 2 -48 -1z"/>
<path d="M82788 44772 c-279 -97 -516 -185 -527 -195 -53 -49 -51 -129 4 -184
26 -26 41 -33 73 -33 40 0 954 306 1048 351 81 38 99 139 36 202 -59 59 -68
57 -634 -141z"/>
<path d="M98320 44937 c-13 -7 -35 -28 -48 -47 -19 -28 -23 -44 -19 -79 9 -83
9 -83 570 -276 312 -108 523 -175 546 -175 62 0 121 61 121 125 0 31 -21 73
-46 97 -25 21 -1032 368 -1070 368 -16 0 -40 -6 -54 -13z"/>
<path d="M79888 44462 c-279 -97 -516 -186 -528 -196 -49 -46 -47 -137 5 -186
52 -49 70 -45 575 128 611 211 575 196 601 238 30 50 22 115 -19 157 -59 59
-67 57 -634 -141z"/>
<path d="M101225 44630 c-11 -4 -31 -20 -45 -35 -20 -22 -25 -37 -25 -81 0
-95 -10 -90 568 -289 312 -108 523 -175 546 -175 62 0 121 61 121 125 0 31
-21 73 -46 97 -25 22 -1032 368 -1070 367 -16 0 -38 -4 -49 -9z"/>
<path d="M80495 43981 c-60 -21 -292 -100 -514 -176 -435 -150 -452 -158 -465
-230 -14 -72 49 -148 121 -147 31 0 913 295 1040 347 61 26 91 114 60 175 -16
32 -73 70 -106 70 -14 0 -75 -18 -136 -39z"/>
<path d="M101033 44006 c-80 -36 -97 -159 -30 -215 27 -22 1030 -363 1070
-363 106 -1 164 138 89 211 -21 21 -142 66 -530 200 -277 95 -518 174 -535
177 -18 2 -47 -2 -64 -10z"/>
<path d="M109530 27770 c-540 -32 -1019 -205 -1445 -524 -143 -107 -419 -379
-525 -516 -457 -594 -633 -1234 -559 -2035 51 -550 238 -1033 548 -1417 84
-105 249 -268 363 -360 564 -457 1199 -668 1943 -645 282 9 468 38 720 111
629 183 1226 637 1542 1173 236 402 355 846 370 1383 11 380 -35 690 -148
1017 -187 538 -587 1037 -1106 1379 -482 319 -1076 470 -1703 434z"/>
</g>
</svg>
