<svg width="201" height="200" viewBox="0 0 201 200" fill="none" xmlns="http://www.w3.org/2000/svg">
<path d="M194.069 72.4137H6.93097C3.10294 72.4137 0 75.5016 0 79.3102V120.689C0 124.498 3.10294 127.586 6.93097 127.586H194.069C197.897 127.586 201 124.498 201 120.689V79.3102C201 75.5016 197.897 72.4137 194.069 72.4137ZM45.7636 98.0457L39.7772 103.852L41.1901 112.05C41.3758 113.128 40.2389 113.95 39.2657 113.441L31.8667 109.57L24.4674 113.441C23.6163 113.886 22.6392 113.312 22.5328 112.44C22.5253 112.378 22.5218 112.314 22.5238 112.249C22.5242 112.225 22.5289 112.2 22.5312 112.175C22.5348 112.134 22.5363 112.092 22.5438 112.05L22.704 111.12L23.9567 103.852L17.9703 98.0461C17.838 97.918 17.7437 97.7734 17.6774 97.6219C17.5961 97.4344 17.56 97.2355 17.5698 97.0398C17.573 96.9809 17.5796 96.9223 17.5906 96.8645C17.6016 96.8066 17.6162 96.7492 17.6342 96.6938C17.6707 96.5816 17.7222 96.4746 17.7865 96.3758C17.8191 96.3262 17.8545 96.2789 17.8937 96.2336C18.0888 96.0086 18.3644 95.8449 18.7048 95.7957L24.7324 94.9238L26.9776 94.5992L28.9801 90.5621L30.6772 87.1402C30.8598 86.7727 31.1711 86.543 31.515 86.4504C31.6296 86.4199 31.7482 86.4043 31.8664 86.4043C32.3394 86.4043 32.8125 86.6496 33.0555 87.1402L36.7555 94.5992L45.0287 95.7953C46.1165 95.9523 46.5507 97.2824 45.7636 98.0457ZM80.0804 98.0457L74.094 103.852L75.5069 112.05C75.6926 113.128 74.5557 113.95 73.5825 113.441L66.1832 109.57L58.7839 113.441C57.9328 113.886 56.9556 113.312 56.8492 112.44C56.8414 112.378 56.8382 112.314 56.8402 112.249C56.8406 112.225 56.8453 112.2 56.8477 112.175C56.8512 112.134 56.8528 112.092 56.8602 112.05L57.0204 111.12L58.2731 103.852L52.2867 98.0461C52.1544 97.918 52.0602 97.7734 51.9938 97.6219C51.9126 97.4344 51.8761 97.2355 51.8863 97.0398C51.8894 96.9809 51.8961 96.9223 51.9071 96.8645C51.9397 96.6906 52.0064 96.5238 52.1034 96.3754C52.1677 96.2762 52.2463 96.1852 52.3369 96.1059C52.5183 95.9473 52.7492 95.8348 53.0212 95.7949L58.9853 94.9328L61.294 94.5988L63.6636 89.8215L64.9941 87.1395C65.1766 86.7719 65.4883 86.5422 65.8322 86.4496C65.9468 86.4191 66.0654 86.4035 66.1836 86.4035C66.6566 86.4035 67.1297 86.6488 67.3727 87.1395L71.0727 94.5984L79.3459 95.7945C80.433 95.9523 80.8672 97.2824 80.0804 98.0457ZM114.397 98.0457L108.41 103.852L109.823 112.05C110.009 113.128 108.872 113.95 107.899 113.441L100.5 109.571L93.1007 113.441C92.2496 113.887 91.2725 113.313 91.1661 112.441C91.1582 112.378 91.1551 112.314 91.157 112.249C91.1574 112.225 91.1621 112.2 91.1645 112.176C91.168 112.134 91.1696 112.093 91.1771 112.05L91.3372 111.121L92.5899 103.852L86.6035 98.0465C86.4712 97.9184 86.377 97.7738 86.3107 97.6223C86.2294 97.4348 86.1933 97.2359 86.2031 97.0402C86.2062 96.9813 86.2129 96.9227 86.2239 96.8648C86.2455 96.7488 86.2824 96.6363 86.333 96.5301C86.3841 96.4234 86.4492 96.3242 86.527 96.234C86.7221 96.009 86.9977 95.8453 87.338 95.7961L93.3653 94.9246L95.6104 94.6L97.98 89.8227L99.3105 87.1406C99.475 86.809 99.7474 86.5992 100.051 86.4918C100.197 86.4406 100.346 86.4051 100.5 86.4051C100.973 86.4051 101.446 86.6504 101.689 87.141L105.389 94.6L113.662 95.7961C114.749 95.9524 115.184 97.2824 114.397 98.0457ZM148.713 98.0457L142.727 103.852L144.14 112.05C144.325 113.128 143.189 113.95 142.216 113.441L134.816 109.57L127.417 113.441C126.566 113.886 125.589 113.312 125.482 112.44C125.475 112.378 125.472 112.314 125.473 112.249C125.474 112.225 125.479 112.2 125.481 112.175C125.484 112.134 125.486 112.092 125.493 112.05L125.654 111.12L126.906 103.852L120.92 98.0461C120.788 97.918 120.693 97.7734 120.627 97.6219C120.546 97.4344 120.509 97.2355 120.52 97.0398C120.523 96.9809 120.529 96.9223 120.54 96.8645C120.551 96.8066 120.566 96.7492 120.584 96.6938C120.62 96.5816 120.672 96.4746 120.736 96.3758C120.769 96.3262 120.804 96.2789 120.843 96.2336C121.039 96.0086 121.314 95.8449 121.654 95.7957L127.682 94.9242L129.927 94.5996L131.929 90.5625L133.627 87.1406C133.809 86.7731 134.121 86.5434 134.465 86.4508C134.579 86.4203 134.698 86.4047 134.816 86.4047C135.289 86.4047 135.762 86.65 136.005 87.1406L139.705 94.5996L147.978 95.7957C149.066 95.9523 149.5 97.2824 148.713 98.0457ZM183.03 98.0457L177.043 103.852L178.456 112.051C178.603 112.904 177.922 113.596 177.149 113.596C176.945 113.596 176.735 113.548 176.532 113.442L169.132 109.571L161.733 113.442C161.53 113.548 161.32 113.596 161.116 113.596C160.343 113.596 159.662 112.904 159.809 112.051L161.222 103.852L155.236 98.0457C154.448 97.2824 154.883 95.9527 155.971 95.7949L164.244 94.5992L167.944 87.1398C168.187 86.6492 168.66 86.4039 169.133 86.4039C169.606 86.4039 170.079 86.6492 170.322 87.1398L174.022 94.5992L182.295 95.7949C183.383 95.9523 183.817 97.2824 183.03 98.0457Z" fill="#E4EAF6"/>
<path d="M17.6346 96.693C17.6712 96.5809 17.7226 96.4738 17.787 96.375C17.7222 96.4742 17.6712 96.5809 17.6346 96.693Z" fill="#FFDC69"/>
<path d="M31.5158 86.4495C31.1719 86.5413 30.8602 86.7714 30.6781 87.1394L28.981 90.5612L30.6781 87.1394C30.8606 86.7714 31.1719 86.5417 31.5158 86.4495Z" fill="#FFDC69"/>
<path d="M18.7052 95.7953L24.7324 94.9238L18.7052 95.7953C18.3652 95.8445 18.0892 96.0078 17.8941 96.2332C18.0892 96.0078 18.3656 95.8445 18.7052 95.7953Z" fill="#FFDC69"/>
<path d="M17.5703 97.0407C17.5733 96.9814 17.5797 96.9226 17.5903 96.8645C17.5797 96.9222 17.5733 96.981 17.5703 97.0407Z" fill="#FFDC69"/>
<path d="M17.9703 98.0457C17.838 97.9176 17.7438 97.7734 17.6774 97.6215C17.7434 97.7727 17.8384 97.9176 17.9703 98.0457L23.9567 103.852L22.7036 111.121L23.9563 103.852L17.9703 98.0457Z" fill="#FFDC69"/>
<path d="M22.5238 112.249C22.5242 112.225 22.5294 112.2 22.532 112.176C22.5294 112.2 22.5242 112.225 22.5238 112.249Z" fill="#FFDC69"/>
<path d="M45.0287 95.7953L36.7555 94.5992L33.0555 87.1402C32.8125 86.6496 32.3394 86.4043 31.8663 86.4043V109.57L24.467 113.441C23.6159 113.886 22.6388 113.312 22.5324 112.44C22.6388 113.312 23.6159 113.886 24.467 113.441L31.8663 109.57L39.2657 113.441C40.2385 113.95 41.3758 113.128 41.1901 112.05L39.7772 103.852L45.7636 98.0457C46.5507 97.2824 46.1165 95.9523 45.0287 95.7953Z" fill="#FFDC69"/>
<path d="M24.4675 113.441L31.8668 109.571V86.4047C31.7486 86.4047 31.6304 86.4203 31.5154 86.4508C31.1715 86.5426 30.8598 86.7727 30.6776 87.1406L28.9805 90.5625L26.978 94.5996L24.7324 94.9242L18.7052 95.7957C18.3652 95.8449 18.0892 96.0082 17.8941 96.2336C17.8553 96.2785 17.8191 96.3262 17.787 96.3758C17.7226 96.475 17.6707 96.5816 17.6346 96.6937C17.6166 96.7496 17.6017 96.8066 17.5911 96.8645C17.5801 96.9223 17.5734 96.9812 17.5703 97.0398C17.5604 97.2355 17.5962 97.4344 17.6778 97.6219C17.7438 97.7734 17.8384 97.918 17.9707 98.0461L23.9571 103.852L22.704 111.12L22.5438 112.05C22.5364 112.093 22.5348 112.134 22.5313 112.175C22.5289 112.2 22.5246 112.225 22.5238 112.249C22.5222 112.314 22.5254 112.378 22.5328 112.44C22.6392 113.312 23.6163 113.887 24.4675 113.441Z" fill="#FFC864"/>
<path d="M51.8867 97.0407C51.8897 96.9814 51.8961 96.9226 51.9067 96.8645C51.8965 96.9222 51.8897 96.981 51.8867 97.0407Z" fill="#FFDC69"/>
<path d="M65.8322 86.4495C65.4883 86.5413 65.1766 86.7714 64.9941 87.1394L63.6636 89.8214L64.9941 87.1394C65.177 86.7714 65.4883 86.5417 65.8322 86.4495Z" fill="#FFDC69"/>
<path d="M58.9856 94.9328L53.0216 95.7949C52.7495 95.834 52.5187 95.9473 52.3373 96.1059C52.5187 95.9473 52.7495 95.8348 53.0216 95.7957L58.9856 94.9328Z" fill="#FFDC69"/>
<path d="M56.8402 112.249C56.8406 112.225 56.8458 112.2 56.8484 112.176C56.8462 112.2 56.8411 112.225 56.8402 112.249Z" fill="#FFDC69"/>
<path d="M52.2867 98.0457C52.1544 97.9176 52.0598 97.7734 51.9938 97.6215C52.0598 97.7727 52.1548 97.9176 52.2867 98.0457L58.2731 103.852L57.0204 111.12L58.2735 103.851L52.2867 98.0457Z" fill="#FFDC69"/>
<path d="M79.3451 95.7953L71.0719 94.5992L67.3719 87.1402C67.1285 86.6496 66.6558 86.4043 66.1828 86.4043V109.57L58.7834 113.441C57.9323 113.886 56.9552 113.312 56.8488 112.44C56.9552 113.312 57.9323 113.886 58.7834 113.441L66.1828 109.57L73.5821 113.441C74.5549 113.95 75.6922 113.128 75.5065 112.05L74.0936 103.852L80.08 98.0457C80.8671 97.2824 80.433 95.9523 79.3451 95.7953Z" fill="#FFDC69"/>
<path d="M58.7838 113.441L66.1831 109.571V86.4047C66.065 86.4047 65.9468 86.4203 65.8318 86.4508C65.4879 86.5426 65.1762 86.7727 64.9936 87.1406L63.6632 89.8227L61.2936 94.6L58.9848 94.934L53.0208 95.7965C52.7487 95.8355 52.5179 95.948 52.3365 96.1066C52.2458 96.1859 52.1677 96.277 52.1029 96.3762C52.006 96.5246 51.9392 96.6918 51.9066 96.8652C51.8957 96.9231 51.889 96.982 51.8858 97.0406C51.8756 97.2363 51.9117 97.4352 51.9934 97.6227C52.0594 97.7742 52.154 97.9188 52.2863 98.0469L58.2727 103.853L57.0196 111.122L56.8594 112.052C56.852 112.094 56.8504 112.136 56.8468 112.177C56.8453 112.201 56.8402 112.226 56.8394 112.25C56.8378 112.316 56.841 112.379 56.8484 112.442C56.9556 113.313 57.9327 113.887 58.7838 113.441Z" fill="#FFC864"/>
<path d="M113.662 95.7953L105.388 94.5992L101.688 87.1402C101.445 86.6496 100.972 86.4043 100.499 86.4043V109.57L93.0999 113.441C92.2488 113.886 91.2717 113.312 91.1653 112.44C91.2717 113.312 92.2488 113.886 93.0999 113.441L100.499 109.57L107.899 113.441C108.871 113.95 110.009 113.128 109.823 112.05L108.41 103.852L114.396 98.0457C115.184 97.2824 114.749 95.9523 113.662 95.7953Z" fill="#FFDC69"/>
<path d="M86.3334 96.5293C86.3841 96.4227 86.4496 96.3234 86.5274 96.2332C86.4496 96.3227 86.3845 96.4227 86.3334 96.5293Z" fill="#FFDC69"/>
<path d="M100.051 86.491C99.7482 86.5984 99.475 86.8082 99.3109 87.1399L97.9804 89.8219L99.3109 87.1399C99.4754 86.8086 99.7478 86.5984 100.051 86.491Z" fill="#FFDC69"/>
<path d="M87.3384 95.7953L93.3657 94.9238L87.3384 95.7953C86.9985 95.8445 86.7225 96.0078 86.5274 96.2332C86.7225 96.0078 86.9985 95.8445 87.3384 95.7953Z" fill="#FFDC69"/>
<path d="M86.6031 98.0457C86.4708 97.9176 86.3762 97.7734 86.3103 97.6215C86.3766 97.7727 86.4712 97.9176 86.6031 98.0457L92.5896 103.852L91.3368 111.12L92.59 103.851L86.6031 98.0457Z" fill="#FFDC69"/>
<path d="M86.2035 97.0407C86.2065 96.9814 86.213 96.9226 86.2236 96.8645C86.213 96.9222 86.2065 96.981 86.2035 97.0407Z" fill="#FFDC69"/>
<path d="M91.157 112.249C91.1575 112.225 91.1626 112.2 91.1652 112.176C91.1626 112.2 91.1575 112.225 91.157 112.249Z" fill="#FFDC69"/>
<path d="M93.1007 113.441L100.5 109.571V86.4047C100.346 86.4047 100.197 86.4398 100.051 86.4914C99.7482 86.5988 99.475 86.8086 99.3109 87.1402L97.9804 89.8223L95.6108 94.5996L93.3657 94.9242L87.3384 95.7957C86.9984 95.8449 86.7225 96.0082 86.5274 96.2336C86.4492 96.3238 86.3845 96.4238 86.3334 96.5297C86.2824 96.6355 86.2455 96.7488 86.2243 96.8645C86.2133 96.9223 86.2066 96.9812 86.2035 97.0398C86.1933 97.2355 86.2294 97.4344 86.311 97.6219C86.377 97.7734 86.4716 97.918 86.6039 98.0461L92.5903 103.852L91.3372 111.121L91.177 112.051C91.1696 112.093 91.168 112.135 91.1645 112.176C91.1629 112.2 91.1578 112.225 91.157 112.25C91.1555 112.315 91.1586 112.379 91.1661 112.441C91.272 113.312 92.2496 113.887 93.1007 113.441Z" fill="#FFC864"/>
<path d="M125.473 112.249C125.474 112.225 125.479 112.2 125.482 112.176C125.479 112.2 125.474 112.225 125.473 112.249Z" fill="#FFDC69"/>
<path d="M120.92 98.0457C120.788 97.9176 120.693 97.7734 120.627 97.6215C120.693 97.7727 120.788 97.9176 120.92 98.0457L126.906 103.852L125.654 111.12L126.906 103.851L120.92 98.0457Z" fill="#FFDC69"/>
<path d="M121.655 95.7953L127.682 94.9238L121.655 95.7953C121.315 95.8445 121.039 96.0078 120.844 96.2332C121.039 96.0078 121.315 95.8445 121.655 95.7953Z" fill="#FFDC69"/>
<path d="M120.584 96.693C120.621 96.5809 120.672 96.4738 120.737 96.375C120.672 96.4742 120.621 96.5809 120.584 96.693Z" fill="#FFDC69"/>
<path d="M120.52 97.0407C120.523 96.9814 120.529 96.9226 120.54 96.8645C120.529 96.9222 120.523 96.981 120.52 97.0407Z" fill="#FFDC69"/>
<path d="M134.465 86.4495C134.122 86.5413 133.81 86.7714 133.627 87.1394L131.93 90.5612L133.627 87.1394C133.81 86.7714 134.122 86.5417 134.465 86.4495Z" fill="#FFDC69"/>
<path d="M147.978 95.7953L139.706 94.5992L136.006 87.1402C135.763 86.6496 135.289 86.4043 134.816 86.4043V109.57L127.417 113.441C126.566 113.886 125.589 113.312 125.482 112.44C125.589 113.312 126.566 113.886 127.417 113.441L134.816 109.57L142.216 113.441C143.189 113.95 144.325 113.128 144.14 112.05L142.727 103.852L148.713 98.0457C149.5 97.2824 149.066 95.9523 147.978 95.7953Z" fill="#FFDC69"/>
<path d="M127.417 113.441L134.816 109.571V86.4047C134.698 86.4047 134.58 86.4203 134.465 86.4508C134.121 86.5426 133.81 86.7727 133.627 87.1406L131.93 90.5625L129.927 94.5996L127.682 94.9242L121.655 95.7957C121.315 95.8449 121.039 96.0082 120.844 96.2336C120.805 96.2785 120.769 96.3262 120.737 96.3758C120.672 96.475 120.62 96.5816 120.584 96.6937C120.566 96.7496 120.551 96.8066 120.541 96.8645C120.53 96.9223 120.523 96.9812 120.52 97.0398C120.51 97.2355 120.546 97.4344 120.627 97.6219C120.693 97.7734 120.788 97.918 120.92 98.0461L126.907 103.852L125.654 111.121L125.494 112.051C125.486 112.093 125.485 112.135 125.481 112.176C125.48 112.2 125.475 112.225 125.474 112.25C125.472 112.315 125.475 112.379 125.483 112.441C125.589 113.312 126.566 113.887 127.417 113.441Z" fill="#FFC864"/>
<path d="M171.721 97.7508L170.914 96.125L169.133 92.534L167.352 96.125L166.545 97.7508L164.742 98.0117L160.76 98.5875L163.642 101.383L164.946 102.648L164.639 104.435L163.958 108.382L167.521 106.518L169.133 105.675L170.746 106.518L174.308 108.382L173.628 104.435L173.32 102.648L174.624 101.383L177.507 98.5875L173.523 98.0117L171.721 97.7508Z" fill="white"/>
<path d="M182.295 95.7949L174.022 94.5992L170.322 87.1398C170.079 86.6492 169.606 86.4039 169.133 86.4039C168.66 86.4039 168.187 86.6492 167.944 87.1398L164.244 94.5992L155.971 95.7949C154.883 95.9523 154.449 97.2824 155.235 98.0457L161.222 103.852L159.809 112.051C159.662 112.904 160.343 113.596 161.116 113.596C161.32 113.596 161.53 113.548 161.733 113.442L169.132 109.571L176.532 113.442C176.735 113.548 176.945 113.596 177.149 113.596C177.922 113.596 178.603 112.904 178.456 112.051L177.043 103.852L183.029 98.0457C183.817 97.2824 183.383 95.9523 182.295 95.7949ZM174.624 101.383L173.319 102.648L173.627 104.436L174.308 108.382L170.746 106.519L169.133 105.675L167.52 106.519L163.958 108.382L164.639 104.436L164.947 102.648L163.642 101.383L160.76 98.5875L164.743 98.0117L166.546 97.7516L167.352 96.1258L169.133 92.5348L170.914 96.1258L171.72 97.7516L173.523 98.0117L177.506 98.5875L174.624 101.383Z" fill="#FFC864"/>
</svg>
