<svg width="30" height="32" viewBox="0 0 30 32" fill="none" xmlns="http://www.w3.org/2000/svg">
<g filter="url(#filter0_d)">
<path d="M4 23.625H8V10.125H4V23.625ZM26 11.25C26 10.0125 25.1 9 24 9H17.69L18.64 3.85875L18.67 3.49875C18.67 3.0375 18.5 2.61 18.23 2.30625L17.17 1.125L10.59 8.53875C10.22 8.94375 10 9.50625 10 10.125V21.375C10 22.6125 10.9 23.625 12 23.625H21C21.83 23.625 22.54 23.0625 22.84 22.2525L25.86 14.3212C25.95 14.0625 26 13.7925 26 13.5V11.25Z" fill="black"/>
</g>
<defs>
<filter id="filter0_d" x="-1" y="0" width="32" height="35" filterUnits="userSpaceOnUse" color-interpolation-filters="sRGB">
<feFlood flood-opacity="0" result="BackgroundImageFix"/>
<feColorMatrix in="SourceAlpha" type="matrix" values="0 0 0 0 0 0 0 0 0 0 0 0 0 0 0 0 0 0 127 0"/>
<feOffset dy="4"/>
<feGaussianBlur stdDeviation="2"/>
<feColorMatrix type="matrix" values="0 0 0 0 0 0 0 0 0 0 0 0 0 0 0 0 0 0 0.25 0"/>
<feBlend mode="normal" in2="BackgroundImageFix" result="effect1_dropShadow"/>
<feBlend mode="normal" in="SourceGraphic" in2="effect1_dropShadow" result="shape"/>
</filter>
</defs>
</svg>
